# xmcd
#
# Track frame offsets:
#	150
#	41781
#	57335
#	98005
#	113483
#	131259
#	159756
#	172382
#	188573
#	210106
#	228182
#	251303
#	268216
#
# Disc length: 3808 seconds
#
# Revision: 0
# Processed by: cddbd v1.5.2PL0 Copyright (c) Steve Scherf et al.
# Submitted via: EZCDAudioConverter 2.1.7.1
#
DISCID=a00ede0d
DTITLE=V/A - Magik Sunset (Part 2) 1/2
DYEAR=1900
DGENRE=
TTITLE0=John Keating - In Search Of Atlantis
TTITLE1=Orchester Ambros Seelos - Mondgesicht
TTITLE2=Plaisirs Erotique - Special Ero
TTITLE3=Francis Lai - Young Freedom
TTITLE4=Glenn - Zeit
TTITLE5=Jack Adkins - Sunset Beach
TTITLE6=Instrumental Group Cabas - Cry In The Night
TTITLE7=Frédéric Castel - Open Up
TTITLE8=Electric Connection - Cry Of The Lone Wolf
TTITLE9=Fabio Fabor - Idolo Moresco
TTITLE10=The Primates - King Kong
TTITLE11=Tony Sinclair Orchestra - Walkin' Through The Night
TTITLE12=Trepidant's - Far Away
EXTD=
EXTT0=
EXTT1=
EXTT2=
EXTT3=
EXTT4=
EXTT5=
EXTT6=
EXTT7=
EXTT8=
EXTT9=
EXTT10=
EXTT11=
EXTT12=
PLAYORDER=
